<svg width="64" height="64" viewBox="0 0 64 64" xmlns="http://www.w3.org/2000/svg"><title>Slice 1</title><g fill="none" fill-rule="evenodd"><path d="M0 64h64V0H0v64" fill="#1073BB"/><path d="M27.298 16.93l1.595.494c-.11.465-.283.853-.52 1.165-.236.31-.53.545-.88.704-.35.16-.795.238-1.337.238-.657 0-1.194-.095-1.61-.285-.416-.19-.776-.524-1.078-1.002-.302-.478-.453-1.09-.453-1.835 0-.993.264-1.757.794-2.29.527-.535 1.276-.8 2.244-.8.76-.002 1.355.154 1.788.466.433.312.756.79.966 1.437l-1.68.363c-.057-.182-.116-.315-.18-.4-.102-.14-.228-.25-.377-.326-.15-.076-.315-.114-.5-.114-.416 0-.736.166-.96.497-.166.246-.25.633-.25 1.16 0 .65.105 1.098.314 1.34.21.242.502.362.88.362.368 0 .645-.1.833-.3.186-.2.323-.493.408-.875m2.102.53l1.848-.11c.036.283.11.5.22.647.178.24.434.36.768.36.248 0 .44-.062.574-.188.134-.127.2-.273.2-.438 0-.157-.058-.297-.177-.42-.12-.125-.427-.243-.923-.353-.81-.185-1.39-.43-1.734-.73-.35-.304-.524-.69-.524-1.158 0-.31.09-.6.267-.874.18-.274.45-.49.81-.646.36-.157.853-.235 1.48-.235.77 0 1.355.144 1.76.434.403.29.643.753.72 1.386l-1.848.11c-.04-.293-.125-.506-.253-.64-.128-.133-.305-.2-.53-.2-.186 0-.326.047-.42.14-.094.09-.14.204-.14.335 0 .098.02.185.064.263.043.08.228.153.555.223.808.176 1.388.353 1.737.533.35.18.605.402.764.67.16.265.24.563.24.893 0 .387-.108.743-.322 1.07-.213.326-.51.575-.894.743-.382.17-.865.253-1.448.253-1.023 0-1.732-.196-2.126-.586-.394-.39-.617-.887-.67-1.49m6.048.006l1.847-.11c.038.283.11.5.22.647.18.24.437.36.77.36.25 0 .44-.062.574-.188.135-.127.202-.273.202-.438 0-.157-.06-.297-.178-.42-.12-.125-.428-.243-.923-.353-.81-.185-1.39-.43-1.735-.73-.35-.304-.524-.69-.524-1.158 0-.31.09-.6.27-.874.178-.274.448-.49.808-.646.36-.157.853-.235 1.48-.235.77 0 1.356.144 1.76.434.403.29.643.753.72 1.386l-1.847.11c-.04-.293-.124-.506-.253-.64-.128-.133-.304-.2-.53-.2-.186 0-.326.047-.42.14-.094.09-.14.204-.14.335 0 .098.02.185.065.263.04.08.225.153.552.223.808.176 1.387.353 1.737.533.35.18.603.402.763.67.16.265.238.563.238.893 0 .387-.105.743-.32 1.07-.212.326-.51.575-.894.743-.383.17-.866.253-1.45.253-1.022 0-1.73-.196-2.125-.586-.393-.39-.616-.887-.667-1.49" fill="#FFF"/><path d="M64 45.617c-4.783-4.94-17.25-23.867-17.25-23.867H21.375L17 44l20.125 20H64V45.617" opacity=".191" fill="#010101"/><path d="M21.433 21.75l-1 4.993H40.76l-.634 3.226h-20.34l-.986 4.99h20.325l-1.133 5.695L29.8 43.37l-7.1-2.713.487-2.47h-4.993l-1.188 5.992 11.74 4.493 13.537-4.495 1.795-9.016.364-1.808L46.75 21.75H21.433" fill="#FFF"/></g></svg>