<svg width="64" height="64" viewBox="0 0 64 64" xmlns="http://www.w3.org/2000/svg"><title>1457900717_html</title><g fill="none" fill-rule="evenodd"><path d="M0 64h64V0H0v64" fill="#E44E25"/><path d="M64 45.58C59.178 40.63 43.96 21.92 43.96 21.92H19.387l2.224 24.34L39.424 64H64V45.58" opacity=".1" fill="#000"/><path d="M20.165 13.8h1.667v1.85h1.895V13.8h1.667v5.327h-1.667V16.98h-1.895v2.147h-1.667V13.8M26.076 13.8h5.153v1.257h-1.744v4.07H27.82v-4.07h-1.744V13.8M31.912 13.8h2.197l.836 3.253.83-3.254h2.198v5.327H36.61v-4.04l-1.03 4.04h-1.265l-1.04-4.04v4.04h-1.363V13.8M39.035 13.8h1.667v3.995h2.653v1.332h-4.32V13.8M31.657 36.367H20.706L19.503 23.2l-.117-1.282h24.511l-.116 1.282-.222 2.422-.098 1.074H24.734l.447 4.893h17.835l-.12 1.282-1.15 12.58-.073.807-10.015 2.71-.023.006L21.61 46.26l-.686-7.503h4.912l.348 3.81 5.45 1.437h.005l5.457-1.44.57-6.197h-6.01" fill="#FFF"/></g></svg>