<svg width="64" height="64" viewBox="0 0 64 64" xmlns="http://www.w3.org/2000/svg"><title>1457900720_jquery</title><g fill="none" fill-rule="evenodd"><path d="M0 64h63.875V0H0v64" fill="#3558A8"/><path d="M48.53 28.125H11.852l-1.747 8.625L42.043 64h21.832V41.25L48.53 28.125" opacity=".102" fill="#010101"/><path fill="#5DA3C2" d="M39.907 28.544l.057.158c.016.045-.028.08-.097.08M36.903 28.274l-.028.136-.328 1.538.345-1.62.01-.054M27.075 29.304l-.182.643.182-.643"/><path d="M48.49 27.475l-.195-.828c-.154-.6-.59-.882-1.573-.882h-4.128c-.095 0-.19.043-.21.136l-1.566 7.443c-.02.094-.026.16-.015.208.01.05.194.04.288.04h1.43c.097 0 .27.007.32-.013.054-.022.078-.164.097-.258l.506-2.61.617-2.895c.02-.093.114-.17.208-.17l4.09-.002c.094 0 .154-.076.132-.168" fill="#FFF"/><path d="M54.308 24.457c-.096.002-1.814 0-1.814 0-.095 0-.217.103-.27.18l-3.184 4.694c-.054.08-.115.077-.136-.016l-.236-1.028c-.02-.093-.115-.17-.21-.17H46.41c-.093 0-.15.08-.125.17l.917 3.223c.027.09.03.242.005.334l-.427 1.632c-.023.093.035.12.132.12h2.02c.095 0 .193-.027.216-.12l.428-1.655c.024-.09.09-.216.147-.293l5.195-6.904c.06-.075.05-.166-.045-.166h-.565M33.005 25.77h-1.847c-.094 0-.19.034-.21.128l-.61 2.86-.607 2.74c-.02.093-.113.087-.208.087h-1.214c-1.2 0-1.062-.76-.815-1.9l.77-3.787c.017-.094-.045-.127-.14-.127h-1.758c-.096 0-.19.034-.208.128l-.708 3.785c-.354 2.047-.365 3.848 2.004 3.907.04.002 3.74 0 3.74 0 .097 0 .19-.03.21-.123l.804-3.796.8-3.812s.03-.087-.003-.087M14.612 25.765h-1.98c-.094 0-.19.022-.21.116l-.36 1.55c-.02.09.042.164.138.164h1.895c.096 0 .19-.086.21-.178l.345-1.56s.028-.09-.038-.09M12.07 28.117c-.093 0-.19.075-.21.168l-.267 1.18-.595 2.73s-.317 1.45-.348 1.54c0 0-.267 1.048-.904 1.006-.296-.02-.635-.087-.635-.087-.178-.054-.19.13-.213.224l-.393 1.7c-.022.093.038.176.133.178 0 0 .852.12 1.454.12h.1c1.487 0 2.272-.876 2.774-3.254l.59-2.752.55-2.562c.02-.093-.035-.18-.13-.18M38.556 29.027c0 .104-.326.084-.326.084l-2.597-.018c-.09 0-.115-.126-.12-.216 0-.003.005-.108.013-.134.2-.697.8-1.096 1.748-1.096 1.068 0 1.297.53 1.297 1.12m-.892-3.013c-3.33 0-4.126 2.062-4.568 4.107-.442 2.084-.404 3.73 3.042 3.73h3.152c.093 0 .187-.086.205-.18l.338-1.32c.02-.094-.043-.122-.138-.122h-3.1c-1.122 0-1.523-.346-1.484-1.125 0-.088.1-.313.195-.313h4.775c.21-.002.216-.125.216-.125.487-2.197.52-4.652-2.632-4.652M21.525 30.048l-.384 1.314c-.025.092-.133.154-.228.154h-1.98c-1.502 0-1.867-1.164-1.502-2.9.366-1.774 1.093-2.872 2.57-2.983 2.02-.153 2.434 1.277 1.944 2.92l-.42 1.495m1.76 1.392s.933-2.27 1.145-3.582c.29-1.756-.588-4.302-3.977-4.302-3.37 0-4.832 2.43-5.392 5.074-.556 2.662.174 4.98 3.525 4.96l5.114-.002c.093 0 .19-.077.215-.168l.432-1.645c.023-.092-.035-.168-.13-.168l-.413-.003-.412-.002c-.08 0-.127-.054-.117-.123.002-.014.004-.027.01-.04" fill="#FFF"/></g></svg>