<svg width="64" height="64" viewBox="0 0 64 64" xmlns="http://www.w3.org/2000/svg"><title>Group 2</title><g fill="none" fill-rule="evenodd"><path d="M0 64h64V0H0v64" fill="#8FC84E"/><path d="M64 42.75c-3.75-4.75-9.042-11.973-9.042-11.973L11.25 30.75l-2.5 7L31.125 64H64V42.75" opacity=".1" fill="#010101"/><g><path fill="#222" d="M16.838 15.308H55.03v29.654H16.838z"/><path fill="#FFF" d="M18.96 17.426h33.948v25.417H18.96z"/><path fill="#222" d="M8.35 30.135h29.706v21.18H8.35z"/><path fill="#FFF" d="M10.473 32.253h23.34v16.945h-23.34zM36.783 40.726c0 .468-.38.847-.85.847-.467 0-.847-.38-.847-.847 0-.468.38-.847.848-.847.47 0 .85.378.85.846z"/><path fill="#CCC" d="M10.898 36.702h22.49v4.236H10.9zM10.898 41.362h7.214v7.413h-7.214zM18.536 41.362h7.214v7.413h-7.214zM26.175 41.362h7.214v7.413h-7.215zM19.385 22.722h33.1v4.236h-33.1zM19.385 27.382h7.957v2.754h-7.957zM27.766 27.382h7.957v2.754h-7.957zM36.146 27.382v2.753h1.91V42.42h6.047V27.382h-7.957zM44.528 27.382h7.957v15.04h-7.957z"/><g><path d="M51.848 34.372c-.074 0-.145.007-.214.02-.07.015-.135.036-.2.063-.062.027-.123.06-.18.098-.056.038-.108.08-.156.128-.048.05-.092.103-.13.16-.038.055-.07.116-.098.18-.027.062-.047.13-.06.197-.015.07-.023.14-.023.214v12.71c0 .072.008.143.022.212.013.07.033.137.06.2.027.064.06.123.098.18.038.055.082.11.13.157.048.046.1.09.157.128.056.038.117.07.18.097.064.027.13.048.2.062.068.014.14.02.213.02h6.365c.073 0 .146-.006.215-.02.07-.014.135-.035.2-.062.062-.027.122-.06.18-.097.055-.038.107-.082.155-.13.048-.047.092-.1.13-.157.038-.055.07-.114.097-.178.027-.063.048-.13.062-.2.015-.07.022-.14.022-.213V35.43c0-.073-.007-.144-.022-.213-.014-.068-.035-.135-.062-.198-.027-.064-.06-.125-.097-.18-.038-.057-.082-.11-.13-.16-.048-.047-.1-.09-.156-.127-.057-.038-.117-.07-.18-.098-.064-.027-.13-.048-.2-.062-.068-.014-.14-.02-.214-.02h-6.365z" fill="#222"/><path fill="#FFF" d="M51.848 36.49h6.365v10.59h-6.365z"/></g><path fill="#CCC" d="M52.272 39.032h5.517v2.965H52.27zM52.272 42.42h5.517v4.66H52.27z"/></g></g></svg>